{
  "accessors": [
    {
      "bufferView": 2,
      "componentType": 5126,
      "count": 393,
      "max": [
        3.001692295074463,
        2.638805389404297,
        5.61707878112793
      ],
      "min": [
        -3.4046871662139893,
        -6.556510925292969e-07,
        -5.61707878112793
      ],
      "type": "VEC3"
    },
    {
      "bufferView": 2,
      "byteOffset": 4716,
      "componentType": 5126,
      "count": 393,
      "max": [
        1.0,
        1.0,
        1.0
      ],
      "min": [
        -1.0,
        -1.0,
        -1.0
      ],
      "type": "VEC3"
    },
    {
      "bufferView": 1,
      "componentType": 5126,
      "count": 393,
      "max": [
        1.0,
        1.0
      ],
      "min": [
        0.0,
        0.0
      ],
      "type": "VEC2"
    },
    {
      "bufferView": 0,
      "componentType": 5125,
      "count": 876,
      "type": "SCALAR"
    },
    {
      "bufferView": 2,
      "byteOffset": 9432,
      "componentType": 5126,
      "count": 4,
      "max": [
        2.8812367916107178,
        2.547725200653076,
        5.559092044830322
      ],
      "min": [
        -3.3510830402374268,
        2.5477237701416016,
        -5.559092044830322
      ],
      "type": "VEC3"
    },
    {
      "bufferView": 2,
      "byteOffset": 9480,
      "componentType": 5126,
      "count": 4,
      "max": [
        1.523825403637602e-07,
        -1.0,
        1.7251708416855804e-13
      ],
      "min": [
        -1.061413513525622e-06,
        -1.0,
        -1.7251708416855804e-13
      ],
      "type": "VEC3"
    },
    {
      "bufferView": 1,
      "byteOffset": 3144,
      "componentType": 5126,
      "count": 4,
      "max": [
        0.9996516704559326,
        0.9953020215034485
      ],
      "min": [
        0.00034845247864723206,
        0.0009693605825304985
      ],
      "type": "VEC2"
    },
    {
      "bufferView": 0,
      "byteOffset": 3504,
      "componentType": 5125,
      "count": 6,
      "type": "SCALAR"
    },
    {
      "bufferView": 2,
      "byteOffset": 9528,
      "componentType": 5126,
      "count": 145,
      "max": [
        4.725021839141846,
        1.3017849922180176,
        5.529510021209717
      ],
      "min": [
        -2.5141143798828125,
        -7.487684726715088,
        -5.529510498046875
      ],
      "type": "VEC3"
    },
    {
      "bufferView": 2,
      "byteOffset": 11268,
      "componentType": 5126,
      "count": 145,
      "max": [
        1.0,
        0.9949511885643005,
        1.0
      ],
      "min": [
        -1.0,
        -1.0,
        -1.0
      ],
      "type": "VEC3"
    },
    {
      "bufferView": 1,
      "byteOffset": 3176,
      "componentType": 5126,
      "count": 145,
      "max": [
        0.875,
        1.0
      ],
      "min": [
        0.125,
        0.0
      ],
      "type": "VEC2"
    },
    {
      "bufferView": 0,
      "byteOffset": 3528,
      "componentType": 5125,
      "count": 216,
      "type": "SCALAR"
    }
  ],
  "asset": {
    "extras": {
      "author": "LagzDesign (https://sketchfab.com/LagzDesign)",
      "license": "CC-BY-4.0 (http://creativecommons.org/licenses/by/4.0/)",
      "source": "https://sketchfab.com/3d-models/desktop-monitor-low-poly-a30bb55b7e774b1fa696edbee9588835",
      "title": "Desktop monitor (low-poly)"
    },
    "generator": "Sketchfab-16.16.0",
    "version": "2.0"
  },
  "bufferViews": [
    {
      "buffer": 0,
      "byteLength": 4392,
      "name": "floatBufferViews",
      "target": 34963
    },
    {
      "buffer": 0,
      "byteLength": 4336,
      "byteOffset": 4392,
      "byteStride": 8,
      "name": "floatBufferViews",
      "target": 34962
    },
    {
      "buffer": 0,
      "byteLength": 13008,
      "byteOffset": 8728,
      "byteStride": 12,
      "name": "floatBufferViews",
      "target": 34962
    }
  ],
  "buffers": [
    {
      "byteLength": 21736,
      "uri": "scene.bin"
    }
  ],
  "extensionsUsed": [
    "KHR_materials_specular"
  ],
  "images": [
    {
      "uri": "textures/screen_baseColor.jpeg"
    }
  ],
  "materials": [
    {
      "doubleSided": true,
      "extensions": {
        "KHR_materials_specular": {
          "specularColorFactor": [
            1.0,
            1.0,
            1.0
          ],
          "specularFactor": 0.2
        }
      },
      "name": "plastic",
      "pbrMetallicRoughness": {
        "baseColorFactor": [
          0.0029914912190783633,
          0.0029914912190783633,
          0.0029914912190783633,
          1.0
        ],
        "metallicFactor": 0.6,
        "roughnessFactor": 0.8
      }
    },
    {
      "doubleSided": true,
      "emissiveFactor": [
        0.8,
        0.8,
        0.8
      ],
      "emissiveTexture": {
        "index": 0
      },
      "extensions": {
        "KHR_materials_specular": {
          "specularColorFactor": [
            1.0,
            1.0,
            1.0
          ],
          "specularFactor": 0.1
        }
      },
      "name": "screen",
      "pbrMetallicRoughness": {
        "baseColorTexture": {
          "index": 0
        },
        "metallicFactor": 0.2,
        "roughnessFactor": 0.1
      }
    },
    {
      "doubleSided": true,
      "name": "Material",
      "pbrMetallicRoughness": {
        "baseColorFactor": [
          0.0,
          0.0,
          0.0,
          1.0
        ],
        "metallicFactor": 0.6,
        "roughnessFactor": 0.9130925702583474
      }
    }
  ],
  "meshes": [
    {
      "name": "Object_0",
      "primitives": [
        {
          "attributes": {
            "NORMAL": 1,
            "POSITION": 0,
            "TEXCOORD_0": 2
          },
          "indices": 3,
          "material": 0,
          "mode": 4
        }
      ]
    },
    {
      "name": "Object_1",
      "primitives": [
        {
          "attributes": {
            "NORMAL": 5,
            "POSITION": 4,
            "TEXCOORD_0": 6
          },
          "indices": 7,
          "material": 1,
          "mode": 4
        }
      ]
    },
    {
      "name": "Object_2",
      "primitives": [
        {
          "attributes": {
            "NORMAL": 9,
            "POSITION": 8,
            "TEXCOORD_0": 10
          },
          "indices": 11,
          "material": 2,
          "mode": 4
        }
      ]
    }
  ],
  "nodes": [
    {
      "children": [
        1
      ],
      "matrix": [
        1.0,
        0.0,
        0.0,
        0.0,
        0.0,
        2.220446049250313e-16,
        -1.0,
        0.0,
        0.0,
        1.0,
        2.220446049250313e-16,
        0.0,
        0.0,
        0.0,
        0.0,
        1.0
      ],
      "name": "Sketchfab_model"
    },
    {
      "children": [
        2
      ],
      "name": "root"
    },
    {
      "children": [
        3,
        6
      ],
      "matrix": [
        1.0,
        0.0,
        0.0,
        0.0,
        0.0,
        2.220446049250313e-16,
        1.0,
        0.0,
        0.0,
        -1.0,
        2.220446049250313e-16,
        0.0,
        0.0,
        0.0,
        0.0,
        1.0
      ],
      "name": "GLTF_SceneRootNode"
    },
    {
      "children": [
        4,
        5
      ],
      "matrix": [
        1.2102060076339747e-08,
        -0.1435701698064799,
        -0.0,
        0.0,
        0.06412911415100075,
        5.40567997616753e-09,
        0.0,
        0.0,
        0.0,
        0.0,
        0.1435701698064804,
        0.0,
        -0.16140761971473694,
        0.7170288562774658,
        0.0,
        1.0
      ],
      "name": "Cylinder_0"
    },
    {
      "mesh": 0,
      "name": "Object_4"
    },
    {
      "mesh": 1,
      "name": "Object_5"
    },
    {
      "children": [
        7
      ],
      "matrix": [
        0.06339459121227264,
        0.0,
        0.0,
        0.0,
        0.0,
        0.0962243527173996,
        0.0,
        0.0,
        0.0,
        0.0,
        0.0962243527173996,
        0.0,
        -0.16140763461589813,
        0.7209177613258362,
        0.0,
        1.0
      ],
      "name": "Cube_1"
    },
    {
      "mesh": 2,
      "name": "Object_7"
    }
  ],
  "samplers": [
    {
      "magFilter": 9729,
      "minFilter": 9987,
      "wrapS": 10497,
      "wrapT": 10497
    }
  ],
  "scene": 0,
  "scenes": [
    {
      "name": "Sketchfab_Scene",
      "nodes": [
        0
      ]
    }
  ],
  "textures": [
    {
      "sampler": 0,
      "source": 0
    }
  ]
}
