<svg xmlns="http://www.w3.org/2000/svg" viewBox="0 0 200.74 195.79"><defs><style>.cls-1{fill:#3b82f6;}.cls-2,.cls-3{fill:#fff;}.cls-2{stroke:#3b82f6;stroke-width:7px;}</style></defs><title>Asset 14</title><g id="Layer_2" data-name="Layer 2"><g id="Layer_1-2" data-name="Layer 1"><path class="cls-1" d="M166.66,38h-8.85v9.45h5.67a8.8,8.8,0,0,1,8.81,8.81V78.55a8.8,8.8,0,0,1-8.81,8.81h-141a8.81,8.81,0,0,1-8.81-8.81V56.26a8.81,8.81,0,0,1,8.81-8.81h9.64V38H14.3A14.3,14.3,0,0,0,0,52.3V181.49a14.3,14.3,0,0,0,14.3,14.3H166.66a14.3,14.3,0,0,0,14.3-14.3V52.3A14.3,14.3,0,0,0,166.66,38Z"/><rect class="cls-2" x="138.68" y="99.15" width="58.56" height="39.91" rx="8.81"/><rect class="cls-1" x="149.84" y="111.61" width="15" height="15" rx="7.5"/><rect class="cls-1" x="34.61" y="24.37" width="75.4" height="60.49"/><path class="cls-3" d="M107.51,26.87V82.36H37.11V26.87h70.4m5-5H32.11V87.36h80.4V21.87Z"/><rect class="cls-1" x="55.91" y="13.14" width="75.4" height="71.72"/><path class="cls-3" d="M128.81,15.64V82.36H58.41V15.64h70.4m5-5H53.41V87.36h80.4V10.64Z"/><rect class="cls-1" x="79.91" y="2.5" width="75.4" height="82.36"/><path class="cls-3" d="M152.81,5V82.36H82.41V5h70.4m5-5H77.41V87.36h80.4V0Z"/><path class="cls-3" d="M128,71.81a13.11,13.11,0,0,0-3.09-2.25A33.74,33.74,0,0,0,121.37,68c-1.2-.47-2.37-.91-3.53-1.33a21.34,21.34,0,0,1-3.1-1.38,7.15,7.15,0,0,1-2.2-1.82,4.08,4.08,0,0,1-.82-2.6,4.51,4.51,0,0,1,.36-1.82,3.73,3.73,0,0,1,1.12-1.42,5.69,5.69,0,0,1,2-.92,11.46,11.46,0,0,1,2.94-.33,12.94,12.94,0,0,1,3.45.43,24.94,24.94,0,0,1,2.77.92c.8.33,1.48.64,2,.93a3.2,3.2,0,0,0,1.25.43.65.65,0,0,0,.4-.12,1,1,0,0,0,.3-.46,4.52,4.52,0,0,0,.18-1c0-.44.05-1,.05-1.68,0-.51,0-.95,0-1.34a8.06,8.06,0,0,0-.11-1,2.79,2.79,0,0,0-.23-.69,2.33,2.33,0,0,0-.43-.56,3.69,3.69,0,0,0-1-.63,16.26,16.26,0,0,0-3.53-1.2c-.68-.16-1.33-.28-1.94-.37l.65-6.23a2.29,2.29,0,0,0-.09-.66.85.85,0,0,0-.47-.48,3.63,3.63,0,0,0-1-.28,11.59,11.59,0,0,0-1.7-.1,10.35,10.35,0,0,0-1.39.07,2.7,2.7,0,0,0-.84.21,1,1,0,0,0-.43.33,1,1,0,0,0-.15.45L115.15,50A18.9,18.9,0,0,0,110,51.22a11.92,11.92,0,0,0-3.81,2.46,10.28,10.28,0,0,0-2.38,3.54,11.91,11.91,0,0,0-.82,4.51,12.09,12.09,0,0,0,.81,4.67A10.18,10.18,0,0,0,106,69.68,13.42,13.42,0,0,0,109,72a30.41,30.41,0,0,0,3.48,1.61c1.19.47,2.35.9,3.48,1.31A19.16,19.16,0,0,1,119,76.26a7.42,7.42,0,0,1,2.17,1.8,4.06,4.06,0,0,1,.8,2.61,4.55,4.55,0,0,1-1.88,3.81c-1.25,1-3.16,1.43-5.74,1.43a16.58,16.58,0,0,1-4.3-.49A19.63,19.63,0,0,1,107,84.33a23.27,23.27,0,0,1-2.11-1.09,2.78,2.78,0,0,0-1.26-.49,1.15,1.15,0,0,0-.57.14,1.12,1.12,0,0,0-.42.55,4.17,4.17,0,0,0-.23,1.12c0,.49-.06,1.1-.06,1.85,0,.35,0,.66,0,1h26A11.46,11.46,0,0,0,130,84.73a12.58,12.58,0,0,0,1-5.12,11.44,11.44,0,0,0-.83-4.57A10.25,10.25,0,0,0,128,71.81Z"/><rect class="cls-3" x="56.41" y="141.7" width="16" height="25.87"/><rect class="cls-3" x="80.41" y="126.04" width="16" height="41.53"/><rect class="cls-3" x="104.41" y="113.45" width="16" height="54.13"/></g></g></svg>